<svg width="19" height="21" viewBox="0 0 19 21" fill="none" xmlns="http://www.w3.org/2000/svg">
<path fill-rule="evenodd" clip-rule="evenodd" d="M2.57222 14.229L3.75222 13.047C4.13022 12.669 4.33822 12.167 4.33822 11.633V6.95602C4.33822 5.59902 4.92822 4.30202 5.95822 3.40002C6.99622 2.49002 8.31822 2.09002 9.69522 2.27102C12.0222 2.58002 13.7772 4.68402 13.7772 7.16602V11.633C13.7772 12.167 13.9852 12.669 14.3622 13.046L15.5432 14.229H2.57222ZM11.0572 16.57C11.0572 17.469 10.1412 18.229 9.05722 18.229C7.97322 18.229 7.05722 17.469 7.05722 16.57V16.229H11.0572V16.57ZM17.5782 13.437L15.7772 11.633V7.16602C15.7772 3.68502 13.2752 0.72802 9.95722 0.28902C8.03522 0.0330203 6.09522 0.62002 4.64022 1.89602C3.17622 3.17802 2.33822 5.02202 2.33822 6.95602L2.33722 11.633L0.53622 13.437C0.0672201 13.907 -0.0717799 14.606 0.18222 15.219C0.43722 15.833 1.03022 16.229 1.69422 16.229H5.05722V16.57C5.05722 18.588 6.85122 20.229 9.05722 20.229C11.2632 20.229 13.0572 18.588 13.0572 16.57V16.229H16.4202C17.0842 16.229 17.6762 15.833 17.9302 15.22C18.1852 14.606 18.0472 13.906 17.5782 13.437Z" fill="#768298"/>
</svg>
